<svg width="20" height="20" viewBox="0 0 20 20" fill="none" xmlns="http://www.w3.org/2000/svg">
    <path d="M16.2 15.3333L13.4 18.3333C13.3333 18.4 13.2667 18.4667 13.1333 18.5333C13 18.5333 12.8667 18.6 12.7333 18.6H1.33333C1.26667 18.6 1.2 18.6 1.13333 18.5333C1.06667 18.5333 1 18.4667 0.933333 18.4C0.933333 18.3333 0.866667 18.2667 0.866667 18.2C0.866667 18.1333 0.866667 18.0667 0.866667 18L3.66667 15C3.73333 14.9333 3.8 14.8667 3.93333 14.8C4.06667 14.8 4.2 14.7333 4.33333 14.7333H15.7333C15.8 14.7333 15.8667 14.7333 15.9333 14.8C16 14.8 16.0667 14.8667 16.1333 14.9333C16.1333 15 16.2 15.0667 16.2 15.1333C16.2 15.2 16.2 15.2667 16.2 15.3333Z" fill="url(#paint0_linear)"/>
    <path d="M16.2 9.33333L13.4 12.3333C13.3333 12.4 13.2667 12.4667 13.1333 12.5333C13 12.5333 12.8667 12.6 12.7333 12.6H1.33333C1.26667 12.6 1.2 12.6 1.13333 12.5333C1.06667 12.5333 1 12.4667 0.933333 12.4C0.933333 12.3333 0.866667 12.2667 0.866667 12.2C0.866667 12.1333 0.866667 12.0667 0.866667 12L3.66667 9C3.73333 8.93333 3.8 8.86667 3.93333 8.8C4.06667 8.8 4.2 8.73333 4.33333 8.73333H15.7333C15.8 8.73333 15.8667 8.73333 15.9333 8.8C16 8.8 16.0667 8.86667 16.1333 8.93333C16.1333 9 16.2 9.06667 16.2 9.13333C16.2 9.2 16.2 9.26667 16.2 9.33333Z" fill="url(#paint1_linear)"/>
    <path d="M16.2 3.33333L13.4 6.33333C13.3333 6.4 13.2667 6.46667 13.1333 6.53333C13 6.53333 12.8667 6.6 12.7333 6.6H1.33333C1.26667 6.6 1.2 6.6 1.13333 6.53333C1.06667 6.53333 1 6.46667 0.933333 6.4C0.933333 6.33333 0.866667 6.26667 0.866667 6.2C0.866667 6.13333 0.866667 6.06667 0.866667 6L3.66667 3C3.73333 2.93333 3.8 2.86667 3.93333 2.8C4.06667 2.8 4.2 2.73333 4.33333 2.73333H15.7333C15.8 2.73333 15.8667 2.73333 15.9333 2.8C16 2.8 16.0667 2.86667 16.1333 2.93333C16.1333 3 16.2 3.06667 16.2 3.13333C16.2 3.2 16.2 3.26667 16.2 3.33333Z" fill="url(#paint2_linear)"/>
    <defs>
        <linearGradient id="paint0_linear" x1="0.866667" y1="16.6667" x2="16.2" y2="16.6667" gradientUnits="userSpaceOnUse">
            <stop offset="0.08" stop-color="#9945FF"/>
            <stop offset="0.3" stop-color="#8752F3"/>
            <stop offset="0.5" stop-color="#5497D5"/>
            <stop offset="0.6" stop-color="#43B4CA"/>
            <stop offset="0.72" stop-color="#28E0B9"/>
            <stop offset="0.97" stop-color="#19FB9B"/>
        </linearGradient>
        <linearGradient id="paint1_linear" x1="0.866667" y1="10.6667" x2="16.2" y2="10.6667" gradientUnits="userSpaceOnUse">
            <stop offset="0.08" stop-color="#9945FF"/>
            <stop offset="0.3" stop-color="#8752F3"/>
            <stop offset="0.5" stop-color="#5497D5"/>
            <stop offset="0.6" stop-color="#43B4CA"/>
            <stop offset="0.72" stop-color="#28E0B9"/>
            <stop offset="0.97" stop-color="#19FB9B"/>
        </linearGradient>
        <linearGradient id="paint2_linear" x1="0.866667" y1="4.66667" x2="16.2" y2="4.66667" gradientUnits="userSpaceOnUse">
            <stop offset="0.08" stop-color="#9945FF"/>
            <stop offset="0.3" stop-color="#8752F3"/>
            <stop offset="0.5" stop-color="#5497D5"/>
            <stop offset="0.6" stop-color="#43B4CA"/>
            <stop offset="0.72" stop-color="#28E0B9"/>
            <stop offset="0.97" stop-color="#19FB9B"/>
        </linearGradient>
    </defs>
</svg> 